Coordinates
version=1
nRows=16
nColumns=40
inDegrees=yes

Units are S.I. units (second, meters, Newtons, ...)
If the header above contains a line with 'inDegrees', this indicates whether rotational values are in degrees (yes) or radians (no).

endheader
time	pelvis_tilt	pelvis_list	pelvis_rotation	pelvis_tx	pelvis_ty	pelvis_tz	hip_flexion_r	hip_adduction_r	hip_rotation_r	knee_angle_r	knee_angle_r_beta	ankle_angle_r	subtalar_angle_r	mtp_angle_r	hip_flexion_l	hip_adduction_l	hip_rotation_l	knee_angle_l	knee_angle_l_beta	ankle_angle_l	subtalar_angle_l	mtp_angle_l	lumbar_extension	lumbar_bending	lumbar_rotation	arm_flex_r	arm_add_r	arm_rot_r	elbow_flex_r	pro_sup_r	wrist_flex_r	wrist_dev_r	arm_flex_l	arm_add_l	arm_rot_l	elbow_flex_l	pro_sup_l	wrist_flex_l	wrist_dev_l
      3.32500000	    -17.77346073	      0.64564569	     -2.01789063	     -0.30180908	      0.92482047	     -1.05647805	     16.00279544	     -8.75197593	     -9.04896229	     88.82377722	      1.55026737	    -22.34055896	      0.00000000	      0.00000000	     47.35421945	      1.22448355	     -9.31475336	     56.81443786	      0.99159900	     15.76945520	      0.00000000	      0.00000000	     -4.43185774	     -4.26265711	      4.22717078	     89.32506688	    -23.97252371	     37.80166553	     45.22496745	     80.91312374	      0.00000000	      0.00000000	     89.70572366	    -21.73012790	     41.97031158	     43.09152077	     80.34123367	      0.00000000	      0.00000000
      3.33000000	    -17.81652163	      0.72739551	     -2.03949552	     -0.30199603	      0.92365353	     -1.05640577	     16.02375211	     -8.85771233	     -9.06062795	     88.80268455	      1.54989923	    -22.38276429	      0.00000000	      0.00000000	     47.50548414	      1.23304229	     -9.44217405	     57.01500236	      0.99509951	     15.92924175	      0.00000000	      0.00000000	     -4.44140185	     -4.35525202	      4.23397387	     89.29653525	    -23.80127725	     36.88414576	     45.08415065	     83.77403848	      0.00000000	      0.00000000	     89.70080605	    -21.61444240	     41.12684140	     43.00095477	     83.40016138	      0.00000000	      0.00000000
      3.33500000	    -17.90827564	      0.70871165	     -2.00015719	     -0.30216783	      0.92243661	     -1.05642660	     16.06923881	     -8.85090527	     -9.13037714	     88.78508270	      1.54959202	    -22.33337975	      0.00000000	      0.00000000	     47.76312767	      1.21049929	     -9.42209989	     57.31492212	      1.00033410	     16.01387048	      0.00000000	      0.00000000	     -4.39601610	     -4.32381072	      4.16543048	     89.32678160	    -23.81715445	     37.11609718	     45.14102760	     82.36155834	      0.00000000	      0.00000000	     89.71303059	    -21.66079716	     41.23310736	     43.10084439	     81.99856391	      0.00000000	      0.00000000
      3.34000000	    -17.98761766	      0.79901260	     -2.03910084	     -0.30217975	      0.92116919	     -1.05639474	     16.11728755	     -8.95986041	     -9.11561561	     88.76905955	      1.54931236	    -22.34861073	      0.00000000	      0.00000000	     47.98205046	      1.21693013	     -9.54702214	     57.61544091	      1.00557914	     16.19002478	      0.00000000	      0.00000000	     -4.34146050	     -4.41656373	      4.18707703	     89.32647715	    -23.75530640	     36.76391249	     45.07387580	     83.72190093	      0.00000000	      0.00000000	     89.71121696	    -21.55862368	     40.74949493	     42.99740893	     83.47616640	      0.00000000	      0.00000000
      3.34500000	    -18.03526067	      0.78123543	     -1.96245441	     -0.30249196	      0.92004332	     -1.05641254	     16.12387557	     -8.95517310	     -9.21820150	     88.77704602	      1.54945175	    -22.30677523	      0.00000000	      0.00000000	     48.20446015	      1.23394682	     -9.46548687	     57.90753185	      1.01067709	     16.24395549	      0.00000000	      0.00000000	     -4.37462598	     -4.38089666	      4.03517185	     89.35782884	    -23.61998083	     36.58962503	     45.06021768	     83.73876517	      0.00000000	      0.00000000	     89.72115697	    -21.69010458	     40.64592117	     43.13965947	     83.49209602	      0.00000000	      0.00000000
      3.35000000	    -18.19367163	      0.79162046	     -1.96689876	     -0.30270905	      0.91863286	     -1.05636037	     16.28116911	     -8.95668214	     -9.21546154	     88.81043504	      1.55003450	    -22.25032049	      0.00000000	      0.00000000	     48.54079992	      1.20890276	     -9.48565886	     58.21993719	      1.01612959	     16.37943180	      0.00000000	      0.00000000	     -4.25020682	     -4.40598680	      4.02152227	     89.38123950	    -23.68390888	     36.86485437	     45.19095181	     81.94973265	      0.00000000	      0.00000000	     89.72987627	    -21.66858929	     40.73305640	     43.25982181	     81.66108743	      0.00000000	      0.00000000
      3.35500000	    -18.30925908	      0.78358751	     -1.89968952	     -0.30268327	      0.91737772	     -1.05642199	     16.32673852	     -8.94229125	     -9.28101289	     88.77025298	      1.54933319	    -22.25437481	      0.00000000	      0.00000000	     48.78308104	      1.22898884	     -9.44942125	     58.48347137	      1.02072913	     16.60890696	      0.00000000	      0.00000000	     -4.17713356	     -4.33280367	      3.69435530	     89.40708640	    -23.27452689	     36.68056332	     45.01883462	     82.55056221	      0.00000000	      0.00000000	     89.74856289	    -22.27041619	     40.89329963	     43.70912483	     82.34878213	      0.00000000	      0.00000000
      3.36000000	    -18.30597401	      0.88684129	     -1.90760606	     -0.30302360	      0.91625371	     -1.05637673	     16.33152052	     -9.09280765	     -9.29961312	     88.79088392	      1.54969327	    -22.25094538	      0.00000000	      0.00000000	     48.91611564	      1.28464264	     -9.55134815	     58.69876895	      1.02448678	     16.68681735	      0.00000000	      0.00000000	     -4.23359602	     -4.50224333	      3.96449113	     89.41237857	    -23.60889081	     36.34895320	     45.09722230	     83.86470035	      0.00000000	      0.00000000	     89.73704488	    -21.51118156	     39.95956011	     43.18183101	     83.50038855	      0.00000000	      0.00000000
      3.36500000	    -18.39932336	      0.93563545	     -1.89560880	     -0.30316128	      0.91506154	     -1.05633518	     16.40676537	     -9.13872981	     -9.29832752	     88.82503114	      1.55028925	    -22.18097557	      0.00000000	      0.00000000	     49.13643907	      1.29690690	     -9.59508721	     58.94159043	      1.02872482	     16.78990654	      0.00000000	      0.00000000	     -4.18583545	     -4.54847146	      3.87610749	     89.42643977	    -23.56749625	     36.61434945	     45.12917323	     81.77593540	      0.00000000	      0.00000000	     89.74737482	    -21.62628394	     40.21310725	     43.33626789	     81.45218427	      0.00000000	      0.00000000
      3.37000000	    -18.45324519	      0.99617686	     -1.85013590	     -0.30324556	      0.91392719	     -1.05637826	     16.41466561	     -9.21882897	     -9.33657926	     88.81694193	      1.55014807	    -22.18120378	      0.00000000	      0.00000000	     49.30714853	      1.37988602	     -9.59334872	     59.15492121	      1.03244814	     16.90898276	      0.00000000	      0.00000000	     -4.18147576	     -4.61593423	      3.82073086	     89.43168139	    -23.50991688	     36.17322848	     45.11989856	     83.86533886	      0.00000000	      0.00000000	     89.74843257	    -21.54800957	     39.64694455	     43.27505963	     83.54590091	      0.00000000	      0.00000000
      3.37500000	    -18.56872170	      0.99961858	     -1.77911893	     -0.30359520	      0.91264702	     -1.05639092	     16.51487945	     -9.24747431	     -9.39765196	     88.84897417	      1.55070714	    -22.16293168	      0.00000000	      0.00000000	     49.58742939	      1.40537499	     -9.56617881	     59.42356863	      1.03713693	     17.06623608	      0.00000000	      0.00000000	     -4.13441086	     -4.61026317	      3.69169127	     89.44227017	    -23.41913007	     35.97398161	     45.09836549	     83.91579928	      0.00000000	      0.00000000	     89.75585875	    -21.63309906	     39.55404029	     43.41204304	     83.63145856	      0.00000000	      0.00000000
      3.38000000	    -18.65452948	      1.07486652	     -1.76129573	     -0.30376390	      0.91151887	     -1.05640199	     16.59269130	     -9.34339486	     -9.40669885	     88.86416077	      1.55097219	    -22.16428140	      0.00000000	      0.00000000	     49.79954763	      1.45174184	     -9.63351737	     59.65864659	      1.04123981	     17.17032737	      0.00000000	      0.00000000	     -4.09826304	     -4.68772209	      3.64409243	     89.47327788	    -23.41925596	     36.26778062	     45.15701712	     81.95920605	      0.00000000	      0.00000000	     89.76271345	    -21.67519057	     39.71229969	     43.56113970	     81.65243375	      0.00000000	      0.00000000
      3.38500000	    -18.73485877	      1.10051003	     -1.69124222	     -0.30404486	      0.91036239	     -1.05640852	     16.65811105	     -9.38067691	     -9.47150859	     88.90169764	      1.55162733	    -22.16106588	      0.00000000	      0.00000000	     50.01469078	      1.51562169	     -9.57963251	     59.86920220	      1.04491470	     17.30534639	      0.00000000	      0.00000000	     -4.09311811	     -4.71660121	      3.53871981	     89.47323399	    -23.30264157	     35.71101798	     45.08485867	     83.91949983	      0.00000000	      0.00000000	     89.76609840	    -21.62867832	     39.19542904	     43.52037702	     83.63366275	      0.00000000	      0.00000000
      3.39000000	    -18.86489280	      1.11238652	     -1.60124820	     -0.30444014	      0.90913609	     -1.05647111	     16.79106870	     -9.41680497	     -9.54346187	     88.95049379	      1.55247899	    -22.17543496	      0.00000000	      0.00000000	     50.31913698	      1.57869096	     -9.51957077	     60.12848582	      1.04944005	     17.40333399	      0.00000000	      0.00000000	     -4.02994589	     -4.72526436	      3.44213964	     89.48815831	    -23.29383080	     35.59936973	     45.13848058	     83.96174031	      0.00000000	      0.00000000	     89.77255610	    -21.59930309	     38.99594860	     43.54216176	     83.72739453	      0.00000000	      0.00000000
      3.39500000	    -18.91924727	      1.17346430	     -1.59609338	     -0.30453225	      0.90809478	     -1.05644058	     16.83825691	     -9.48160172	     -9.52947300	     88.95998880	      1.55264471	    -22.21222889	      0.00000000	      0.00000000	     50.49714312	      1.61922940	     -9.54460982	     60.36584835	      1.05358281	     17.50516230	      0.00000000	      0.00000000	     -4.03527909	     -4.78847802	      3.41600047	     89.49501050	    -23.24290227	     35.44860842	     45.13099992	     84.06609934	      0.00000000	      0.00000000	     89.77670326	    -21.60986695	     38.87101424	     43.64053317	     83.64774148	      0.00000000	      0.00000000
      3.40000000	    -18.92281595	      1.23691831	     -1.57776541	     -0.30465919	      0.90704507	     -1.05643084	     16.83093502	     -9.54379346	     -9.51869154	     88.98856250	      1.55314341	    -22.22292006	      0.00000000	      0.00000000	     50.62012682	      1.65525887	     -9.60299595	     60.59026546	      1.05749963	     17.60525988	      0.00000000	      0.00000000	     -4.09308672	     -4.85593550	      3.37300175	     89.52816201	    -23.23676298	     35.72669662	     45.18280218	     81.88504850	      0.00000000	      0.00000000	     89.78206382	    -21.62777003	     39.01009732	     43.77022776	     81.48994810	      0.00000000	      0.00000000
